<mxfile host="app.diagrams.net" modified="2024-03-23T17:38:16.272Z" agent="Mozilla/5.0 (Windows NT 10.0; Win64; x64) AppleWebKit/537.36 (KHTML, like Gecko) Chrome/123.0.0.0 Safari/537.36" etag="4CLgdaARnTYf3v3eyela" version="24.1.0" type="device">
  <diagram id="C5RBs43oDa-KdzZeNtuy" name="Page-1">
    <mxGraphModel dx="1313" dy="703" grid="1" gridSize="10" guides="1" tooltips="1" connect="1" arrows="1" fold="1" page="1" pageScale="1" pageWidth="827" pageHeight="1169" math="0" shadow="0">
      <root>
        <mxCell id="WIyWlLk6GJQsqaUBKTNV-0" />
        <mxCell id="WIyWlLk6GJQsqaUBKTNV-1" parent="WIyWlLk6GJQsqaUBKTNV-0" />
        <mxCell id="cyexqi5KJZJQGFpCqObf-0" value="Model" style="shape=umlFrame;whiteSpace=wrap;html=1;pointerEvents=0;width=90;height=30;" parent="WIyWlLk6GJQsqaUBKTNV-1" vertex="1">
          <mxGeometry x="20" y="60" width="1750" height="1020" as="geometry" />
        </mxCell>
        <mxCell id="cyexqi5KJZJQGFpCqObf-4" value="&lt;div&gt;PlayableCard&lt;/div&gt;&lt;div&gt;&amp;lt;abs&amp;gt;&lt;/div&gt;" style="swimlane;fontStyle=1;align=center;verticalAlign=top;childLayout=stackLayout;horizontal=1;startSize=40;horizontalStack=0;resizeParent=1;resizeParentMax=0;resizeLast=0;collapsible=1;marginBottom=0;whiteSpace=wrap;html=1;" parent="WIyWlLk6GJQsqaUBKTNV-1" vertex="1">
          <mxGeometry x="80" y="140" width="160" height="170" as="geometry" />
        </mxCell>
        <mxCell id="cyexqi5KJZJQGFpCqObf-5" value="- face: {up, down}" style="text;strokeColor=none;fillColor=none;align=left;verticalAlign=top;spacingLeft=4;spacingRight=4;overflow=hidden;rotatable=0;points=[[0,0.5],[1,0.5]];portConstraint=eastwest;whiteSpace=wrap;html=1;" parent="cyexqi5KJZJQGFpCqObf-4" vertex="1">
          <mxGeometry y="40" width="160" height="50" as="geometry" />
        </mxCell>
        <mxCell id="cyexqi5KJZJQGFpCqObf-6" value="" style="line;strokeWidth=1;fillColor=none;align=left;verticalAlign=middle;spacingTop=-1;spacingLeft=3;spacingRight=3;rotatable=0;labelPosition=right;points=[];portConstraint=eastwest;strokeColor=inherit;" parent="cyexqi5KJZJQGFpCqObf-4" vertex="1">
          <mxGeometry y="90" width="160" height="8" as="geometry" />
        </mxCell>
        <mxCell id="cyexqi5KJZJQGFpCqObf-7" value="&lt;div&gt;+ playable(): boolean&lt;/div&gt;+ getCorner(): Corner" style="text;strokeColor=none;fillColor=none;align=left;verticalAlign=top;spacingLeft=4;spacingRight=4;overflow=hidden;rotatable=0;points=[[0,0.5],[1,0.5]];portConstraint=eastwest;whiteSpace=wrap;html=1;" parent="cyexqi5KJZJQGFpCqObf-4" vertex="1">
          <mxGeometry y="98" width="160" height="72" as="geometry" />
        </mxCell>
        <mxCell id="cyexqi5KJZJQGFpCqObf-10" value="ResourceCard" style="swimlane;fontStyle=1;align=center;verticalAlign=top;childLayout=stackLayout;horizontal=1;startSize=60;horizontalStack=0;resizeParent=1;resizeParentMax=0;resizeLast=0;collapsible=1;marginBottom=0;whiteSpace=wrap;html=1;" parent="WIyWlLk6GJQsqaUBKTNV-1" vertex="1">
          <mxGeometry x="80" y="394" width="180" height="40" as="geometry" />
        </mxCell>
        <mxCell id="cyexqi5KJZJQGFpCqObf-14" value="GoldCard" style="swimlane;fontStyle=1;align=center;verticalAlign=top;childLayout=stackLayout;horizontal=1;startSize=26;horizontalStack=0;resizeParent=1;resizeParentMax=0;resizeLast=0;collapsible=1;marginBottom=0;whiteSpace=wrap;html=1;" parent="WIyWlLk6GJQsqaUBKTNV-1" vertex="1">
          <mxGeometry x="480" y="394" width="190" height="94" as="geometry" />
        </mxCell>
        <mxCell id="cyexqi5KJZJQGFpCqObf-15" value="&lt;div&gt;&lt;span style=&quot;background-color: initial;&quot;&gt;- kingdomsNeeded: Kingdom[]&lt;/span&gt;&lt;br&gt;&lt;/div&gt;&lt;div&gt;- pointsWon: int&lt;/div&gt;" style="text;strokeColor=none;fillColor=none;align=left;verticalAlign=top;spacingLeft=4;spacingRight=4;overflow=hidden;rotatable=0;points=[[0,0.5],[1,0.5]];portConstraint=eastwest;whiteSpace=wrap;html=1;" parent="cyexqi5KJZJQGFpCqObf-14" vertex="1">
          <mxGeometry y="26" width="190" height="34" as="geometry" />
        </mxCell>
        <mxCell id="cyexqi5KJZJQGFpCqObf-16" value="" style="line;strokeWidth=1;fillColor=none;align=left;verticalAlign=middle;spacingTop=-1;spacingLeft=3;spacingRight=3;rotatable=0;labelPosition=right;points=[];portConstraint=eastwest;strokeColor=inherit;" parent="cyexqi5KJZJQGFpCqObf-14" vertex="1">
          <mxGeometry y="60" width="190" height="8" as="geometry" />
        </mxCell>
        <mxCell id="cyexqi5KJZJQGFpCqObf-17" value="+ pointCheck(): int" style="text;strokeColor=none;fillColor=none;align=left;verticalAlign=top;spacingLeft=4;spacingRight=4;overflow=hidden;rotatable=0;points=[[0,0.5],[1,0.5]];portConstraint=eastwest;whiteSpace=wrap;html=1;" parent="cyexqi5KJZJQGFpCqObf-14" vertex="1">
          <mxGeometry y="68" width="190" height="26" as="geometry" />
        </mxCell>
        <mxCell id="cyexqi5KJZJQGFpCqObf-49" value="Scoretrack" style="swimlane;fontStyle=1;align=center;verticalAlign=top;childLayout=stackLayout;horizontal=1;startSize=26;horizontalStack=0;resizeParent=1;resizeParentMax=0;resizeLast=0;collapsible=1;marginBottom=0;whiteSpace=wrap;html=1;" parent="WIyWlLk6GJQsqaUBKTNV-1" vertex="1">
          <mxGeometry x="1251" y="670" width="160" height="120" as="geometry" />
        </mxCell>
        <mxCell id="cyexqi5KJZJQGFpCqObf-50" value="- score: int[4]" style="text;strokeColor=none;fillColor=none;align=left;verticalAlign=top;spacingLeft=4;spacingRight=4;overflow=hidden;rotatable=0;points=[[0,0.5],[1,0.5]];portConstraint=eastwest;whiteSpace=wrap;html=1;" parent="cyexqi5KJZJQGFpCqObf-49" vertex="1">
          <mxGeometry y="26" width="160" height="26" as="geometry" />
        </mxCell>
        <mxCell id="cyexqi5KJZJQGFpCqObf-51" value="" style="line;strokeWidth=1;fillColor=none;align=left;verticalAlign=middle;spacingTop=-1;spacingLeft=3;spacingRight=3;rotatable=0;labelPosition=right;points=[];portConstraint=eastwest;strokeColor=inherit;" parent="cyexqi5KJZJQGFpCqObf-49" vertex="1">
          <mxGeometry y="52" width="160" height="8" as="geometry" />
        </mxCell>
        <mxCell id="cyexqi5KJZJQGFpCqObf-52" value="+ isEqGr20(): bool&lt;div&gt;+ updateScore(int): void&lt;br&gt;&lt;/div&gt;&lt;div&gt;+ checkWinner():Player&lt;/div&gt;" style="text;strokeColor=none;fillColor=none;align=left;verticalAlign=top;spacingLeft=4;spacingRight=4;overflow=hidden;rotatable=0;points=[[0,0.5],[1,0.5]];portConstraint=eastwest;whiteSpace=wrap;html=1;" parent="cyexqi5KJZJQGFpCqObf-49" vertex="1">
          <mxGeometry y="60" width="160" height="60" as="geometry" />
        </mxCell>
        <mxCell id="cyexqi5KJZJQGFpCqObf-54" value="Player" style="swimlane;fontStyle=1;align=center;verticalAlign=top;childLayout=stackLayout;horizontal=1;startSize=26;horizontalStack=0;resizeParent=1;resizeParentMax=0;resizeLast=0;collapsible=1;marginBottom=0;whiteSpace=wrap;html=1;" parent="WIyWlLk6GJQsqaUBKTNV-1" vertex="1">
          <mxGeometry x="1130" y="120" width="260" height="160" as="geometry" />
        </mxCell>
        <mxCell id="cyexqi5KJZJQGFpCqObf-55" value="&lt;div&gt;- nickname: String&lt;/div&gt;&lt;div&gt;- color: {red, blue, yellow, green}&lt;/div&gt;&lt;div&gt;- hand: PlayableCards[3]&lt;/div&gt;&lt;div&gt;- visibleSymbols: List &amp;lt;int&amp;gt;&lt;/div&gt;&lt;div&gt;- gamefield: GameField&lt;/div&gt;" style="text;strokeColor=none;fillColor=none;align=left;verticalAlign=top;spacingLeft=4;spacingRight=4;overflow=hidden;rotatable=0;points=[[0,0.5],[1,0.5]];portConstraint=eastwest;whiteSpace=wrap;html=1;" parent="cyexqi5KJZJQGFpCqObf-54" vertex="1">
          <mxGeometry y="26" width="260" height="104" as="geometry" />
        </mxCell>
        <mxCell id="1D2vdNfesXuCDa7hYdHJ-27" value="+ getVisibleSymbols(): List &amp;lt;VisibleSymbols&amp;gt;" style="html=1;whiteSpace=wrap;fillColor=none;align=left;" vertex="1" parent="cyexqi5KJZJQGFpCqObf-54">
          <mxGeometry y="130" width="260" height="30" as="geometry" />
        </mxCell>
        <mxCell id="cyexqi5KJZJQGFpCqObf-58" value="&lt;div&gt;Deck&lt;/div&gt;&lt;div&gt;&amp;lt;abs&amp;gt;&lt;br&gt;&lt;/div&gt;" style="swimlane;fontStyle=1;align=center;verticalAlign=top;childLayout=stackLayout;horizontal=1;startSize=40;horizontalStack=0;resizeParent=1;resizeParentMax=0;resizeLast=0;collapsible=1;marginBottom=0;whiteSpace=wrap;html=1;" parent="WIyWlLk6GJQsqaUBKTNV-1" vertex="1">
          <mxGeometry x="230" y="560" width="160" height="94" as="geometry" />
        </mxCell>
        <mxCell id="cyexqi5KJZJQGFpCqObf-60" value="" style="line;strokeWidth=1;fillColor=none;align=left;verticalAlign=middle;spacingTop=-1;spacingLeft=3;spacingRight=3;rotatable=0;labelPosition=right;points=[];portConstraint=eastwest;strokeColor=inherit;" parent="cyexqi5KJZJQGFpCqObf-58" vertex="1">
          <mxGeometry y="40" width="160" height="8" as="geometry" />
        </mxCell>
        <mxCell id="cyexqi5KJZJQGFpCqObf-61" value="&lt;div&gt;+ shuffle(): void&lt;/div&gt;&lt;div&gt;+ draw(): Card&lt;br&gt;&lt;/div&gt;" style="text;strokeColor=none;fillColor=none;align=left;verticalAlign=top;spacingLeft=4;spacingRight=4;overflow=hidden;rotatable=0;points=[[0,0.5],[1,0.5]];portConstraint=eastwest;whiteSpace=wrap;html=1;" parent="cyexqi5KJZJQGFpCqObf-58" vertex="1">
          <mxGeometry y="48" width="160" height="46" as="geometry" />
        </mxCell>
        <mxCell id="cyexqi5KJZJQGFpCqObf-62" value="ResourceDeck" style="swimlane;fontStyle=1;align=center;verticalAlign=top;childLayout=stackLayout;horizontal=1;startSize=26;horizontalStack=0;resizeParent=1;resizeParentMax=0;resizeLast=0;collapsible=1;marginBottom=0;whiteSpace=wrap;html=1;" parent="WIyWlLk6GJQsqaUBKTNV-1" vertex="1">
          <mxGeometry x="80" y="769" width="190" height="150" as="geometry" />
        </mxCell>
        <mxCell id="cyexqi5KJZJQGFpCqObf-63" value="&lt;div&gt;- pool:ResourceCard[]&lt;/div&gt;" style="text;strokeColor=none;fillColor=none;align=left;verticalAlign=top;spacingLeft=4;spacingRight=4;overflow=hidden;rotatable=0;points=[[0,0.5],[1,0.5]];portConstraint=eastwest;whiteSpace=wrap;html=1;" parent="cyexqi5KJZJQGFpCqObf-62" vertex="1">
          <mxGeometry y="26" width="190" height="44" as="geometry" />
        </mxCell>
        <mxCell id="cyexqi5KJZJQGFpCqObf-64" value="" style="line;strokeWidth=1;fillColor=none;align=left;verticalAlign=middle;spacingTop=-1;spacingLeft=3;spacingRight=3;rotatable=0;labelPosition=right;points=[];portConstraint=eastwest;strokeColor=inherit;" parent="cyexqi5KJZJQGFpCqObf-62" vertex="1">
          <mxGeometry y="70" width="190" height="8" as="geometry" />
        </mxCell>
        <mxCell id="cyexqi5KJZJQGFpCqObf-65" value="&lt;div&gt;+ isEmpty(): bool&lt;/div&gt;&lt;div&gt;+ draw(): ResourceCard&lt;br&gt;&lt;/div&gt;&lt;div&gt;+ draw(choice): ResourceCard&lt;br&gt;&lt;/div&gt;&lt;div&gt;+replace(): ResourceCard&lt;/div&gt;" style="text;strokeColor=none;fillColor=none;align=left;verticalAlign=top;spacingLeft=4;spacingRight=4;overflow=hidden;rotatable=0;points=[[0,0.5],[1,0.5]];portConstraint=eastwest;whiteSpace=wrap;html=1;" parent="cyexqi5KJZJQGFpCqObf-62" vertex="1">
          <mxGeometry y="78" width="190" height="72" as="geometry" />
        </mxCell>
        <mxCell id="cyexqi5KJZJQGFpCqObf-66" value="GoldDeck" style="swimlane;fontStyle=1;align=center;verticalAlign=top;childLayout=stackLayout;horizontal=1;startSize=26;horizontalStack=0;resizeParent=1;resizeParentMax=0;resizeLast=0;collapsible=1;marginBottom=0;whiteSpace=wrap;html=1;" parent="WIyWlLk6GJQsqaUBKTNV-1" vertex="1">
          <mxGeometry x="290" y="769" width="160" height="150" as="geometry" />
        </mxCell>
        <mxCell id="cyexqi5KJZJQGFpCqObf-67" value="&lt;div&gt;- pool:Gold&lt;span style=&quot;background-color: initial;&quot;&gt;Card[]&lt;/span&gt;&lt;/div&gt;" style="text;strokeColor=none;fillColor=none;align=left;verticalAlign=top;spacingLeft=4;spacingRight=4;overflow=hidden;rotatable=0;points=[[0,0.5],[1,0.5]];portConstraint=eastwest;whiteSpace=wrap;html=1;" parent="cyexqi5KJZJQGFpCqObf-66" vertex="1">
          <mxGeometry y="26" width="160" height="44" as="geometry" />
        </mxCell>
        <mxCell id="cyexqi5KJZJQGFpCqObf-68" value="" style="line;strokeWidth=1;fillColor=none;align=left;verticalAlign=middle;spacingTop=-1;spacingLeft=3;spacingRight=3;rotatable=0;labelPosition=right;points=[];portConstraint=eastwest;strokeColor=inherit;" parent="cyexqi5KJZJQGFpCqObf-66" vertex="1">
          <mxGeometry y="70" width="160" height="8" as="geometry" />
        </mxCell>
        <mxCell id="cyexqi5KJZJQGFpCqObf-69" value="&lt;div&gt;+ isEmpty: bool&lt;/div&gt;&lt;div&gt;+ draw(): GoldCard&lt;br&gt;&lt;/div&gt;&lt;div&gt;+ draw(choice): GoldCard&lt;/div&gt;&lt;div&gt;+ replace(): GoldCard&lt;/div&gt;" style="text;strokeColor=none;fillColor=none;align=left;verticalAlign=top;spacingLeft=4;spacingRight=4;overflow=hidden;rotatable=0;points=[[0,0.5],[1,0.5]];portConstraint=eastwest;whiteSpace=wrap;html=1;" parent="cyexqi5KJZJQGFpCqObf-66" vertex="1">
          <mxGeometry y="78" width="160" height="72" as="geometry" />
        </mxCell>
        <mxCell id="cyexqi5KJZJQGFpCqObf-70" value="StarterDeck" style="swimlane;fontStyle=1;align=center;verticalAlign=top;childLayout=stackLayout;horizontal=1;startSize=26;horizontalStack=0;resizeParent=1;resizeParentMax=0;resizeLast=0;collapsible=1;marginBottom=0;whiteSpace=wrap;html=1;" parent="WIyWlLk6GJQsqaUBKTNV-1" vertex="1">
          <mxGeometry x="500" y="769" width="160" height="52" as="geometry" />
        </mxCell>
        <mxCell id="cyexqi5KJZJQGFpCqObf-71" value="&lt;div&gt;- pool:StarterCard[]&lt;/div&gt;" style="text;strokeColor=none;fillColor=none;align=left;verticalAlign=top;spacingLeft=4;spacingRight=4;overflow=hidden;rotatable=0;points=[[0,0.5],[1,0.5]];portConstraint=eastwest;whiteSpace=wrap;html=1;" parent="cyexqi5KJZJQGFpCqObf-70" vertex="1">
          <mxGeometry y="26" width="160" height="26" as="geometry" />
        </mxCell>
        <mxCell id="cyexqi5KJZJQGFpCqObf-74" value="ObjectiveDeck" style="swimlane;fontStyle=1;align=center;verticalAlign=top;childLayout=stackLayout;horizontal=1;startSize=26;horizontalStack=0;resizeParent=1;resizeParentMax=0;resizeLast=0;collapsible=1;marginBottom=0;whiteSpace=wrap;html=1;" parent="WIyWlLk6GJQsqaUBKTNV-1" vertex="1">
          <mxGeometry x="720" y="769" width="160" height="52" as="geometry" />
        </mxCell>
        <mxCell id="cyexqi5KJZJQGFpCqObf-75" value="&lt;div&gt;- pool:ObjectiveCard[]&lt;/div&gt;" style="text;strokeColor=none;fillColor=none;align=left;verticalAlign=top;spacingLeft=4;spacingRight=4;overflow=hidden;rotatable=0;points=[[0,0.5],[1,0.5]];portConstraint=eastwest;whiteSpace=wrap;html=1;" parent="cyexqi5KJZJQGFpCqObf-74" vertex="1">
          <mxGeometry y="26" width="160" height="26" as="geometry" />
        </mxCell>
        <mxCell id="cyexqi5KJZJQGFpCqObf-89" value="ObjectiveCard" style="swimlane;fontStyle=1;align=center;verticalAlign=top;childLayout=stackLayout;horizontal=1;startSize=26;horizontalStack=0;resizeParent=1;resizeParentMax=0;resizeLast=0;collapsible=1;marginBottom=0;whiteSpace=wrap;html=1;" parent="WIyWlLk6GJQsqaUBKTNV-1" vertex="1">
          <mxGeometry x="760" y="427" width="160" height="52" as="geometry" />
        </mxCell>
        <mxCell id="cyexqi5KJZJQGFpCqObf-90" value="- is: {shared, personal}" style="text;strokeColor=none;fillColor=none;align=left;verticalAlign=top;spacingLeft=4;spacingRight=4;overflow=hidden;rotatable=0;points=[[0,0.5],[1,0.5]];portConstraint=eastwest;whiteSpace=wrap;html=1;" parent="cyexqi5KJZJQGFpCqObf-89" vertex="1">
          <mxGeometry y="26" width="160" height="26" as="geometry" />
        </mxCell>
        <mxCell id="cyexqi5KJZJQGFpCqObf-94" value="" style="endArrow=block;endSize=16;endFill=0;html=1;rounded=0;exitX=0.5;exitY=0;exitDx=0;exitDy=0;" parent="WIyWlLk6GJQsqaUBKTNV-1" source="cyexqi5KJZJQGFpCqObf-66" target="cyexqi5KJZJQGFpCqObf-61" edge="1">
          <mxGeometry width="160" relative="1" as="geometry">
            <mxPoint x="440" y="690" as="sourcePoint" />
            <mxPoint x="600" y="690" as="targetPoint" />
            <Array as="points">
              <mxPoint x="370" y="720" />
              <mxPoint x="310" y="720" />
            </Array>
          </mxGeometry>
        </mxCell>
        <mxCell id="cyexqi5KJZJQGFpCqObf-98" value="Everything has proper getter and constructor methods!" style="ellipse;shape=cloud;whiteSpace=wrap;html=1;" parent="WIyWlLk6GJQsqaUBKTNV-1" vertex="1">
          <mxGeometry x="1210" width="220" height="110" as="geometry" />
        </mxCell>
        <mxCell id="w6ULAI7X55Qdr07IySUN-3" value="" style="endArrow=none;html=1;rounded=0;exitX=0.5;exitY=0;exitDx=0;exitDy=0;" parent="WIyWlLk6GJQsqaUBKTNV-1" source="cyexqi5KJZJQGFpCqObf-70" edge="1">
          <mxGeometry width="50" height="50" relative="1" as="geometry">
            <mxPoint x="690" y="744" as="sourcePoint" />
            <mxPoint x="370" y="720" as="targetPoint" />
            <Array as="points">
              <mxPoint x="580" y="720" />
            </Array>
          </mxGeometry>
        </mxCell>
        <mxCell id="w6ULAI7X55Qdr07IySUN-4" value="" style="endArrow=none;html=1;rounded=0;exitX=0.5;exitY=0;exitDx=0;exitDy=0;" parent="WIyWlLk6GJQsqaUBKTNV-1" edge="1">
          <mxGeometry width="50" height="50" relative="1" as="geometry">
            <mxPoint x="800" y="769" as="sourcePoint" />
            <mxPoint x="580" y="720" as="targetPoint" />
            <Array as="points">
              <mxPoint x="800" y="720" />
            </Array>
          </mxGeometry>
        </mxCell>
        <mxCell id="w6ULAI7X55Qdr07IySUN-5" value="" style="endArrow=none;html=1;rounded=0;exitX=0.5;exitY=0;exitDx=0;exitDy=0;" parent="WIyWlLk6GJQsqaUBKTNV-1" edge="1">
          <mxGeometry width="50" height="50" relative="1" as="geometry">
            <mxPoint x="160" y="769" as="sourcePoint" />
            <mxPoint x="310" y="720" as="targetPoint" />
            <Array as="points">
              <mxPoint x="160" y="720" />
            </Array>
          </mxGeometry>
        </mxCell>
        <mxCell id="opdAY9TqX95u1ahsTRh5-0" value="Game&lt;div&gt;&lt;br&gt;&lt;/div&gt;" style="swimlane;fontStyle=1;align=center;verticalAlign=top;childLayout=stackLayout;horizontal=1;startSize=26;horizontalStack=0;resizeParent=1;resizeParentMax=0;resizeLast=0;collapsible=1;marginBottom=0;whiteSpace=wrap;html=1;" parent="WIyWlLk6GJQsqaUBKTNV-1" vertex="1">
          <mxGeometry x="1221" y="370" width="190" height="240" as="geometry" />
        </mxCell>
        <mxCell id="opdAY9TqX95u1ahsTRh5-1" value="- playerList: List &amp;lt;Player&amp;gt;&lt;div&gt;- scoreTrack: Scoretrack&amp;nbsp;&lt;/div&gt;&lt;div&gt;- indexPlayerTurn: int&lt;/div&gt;&lt;div&gt;- gameField GameField&lt;/div&gt;" style="text;strokeColor=none;fillColor=none;align=left;verticalAlign=top;spacingLeft=4;spacingRight=4;overflow=hidden;rotatable=0;points=[[0,0.5],[1,0.5]];portConstraint=eastwest;whiteSpace=wrap;html=1;" parent="opdAY9TqX95u1ahsTRh5-0" vertex="1">
          <mxGeometry y="26" width="190" height="124" as="geometry" />
        </mxCell>
        <mxCell id="opdAY9TqX95u1ahsTRh5-2" value="" style="line;strokeWidth=1;fillColor=none;align=left;verticalAlign=middle;spacingTop=-1;spacingLeft=3;spacingRight=3;rotatable=0;labelPosition=right;points=[];portConstraint=eastwest;strokeColor=inherit;" parent="opdAY9TqX95u1ahsTRh5-0" vertex="1">
          <mxGeometry y="150" width="190" height="8" as="geometry" />
        </mxCell>
        <mxCell id="opdAY9TqX95u1ahsTRh5-3" value="+ addPlayer: int&lt;div&gt;+ nextTurn(): void&lt;/div&gt;" style="text;strokeColor=none;fillColor=none;align=left;verticalAlign=top;spacingLeft=4;spacingRight=4;overflow=hidden;rotatable=0;points=[[0,0.5],[1,0.5]];portConstraint=eastwest;whiteSpace=wrap;html=1;" parent="opdAY9TqX95u1ahsTRh5-0" vertex="1">
          <mxGeometry y="158" width="190" height="82" as="geometry" />
        </mxCell>
        <mxCell id="opdAY9TqX95u1ahsTRh5-18" value="2..4" style="endArrow=open;html=1;endSize=12;startArrow=diamondThin;startSize=14;startFill=1;edgeStyle=orthogonalEdgeStyle;align=left;verticalAlign=bottom;rounded=0;entryX=0.5;entryY=0;entryDx=0;entryDy=0;" parent="WIyWlLk6GJQsqaUBKTNV-1" source="1D2vdNfesXuCDa7hYdHJ-27" target="opdAY9TqX95u1ahsTRh5-0" edge="1">
          <mxGeometry x="-0.4762" y="5" relative="1" as="geometry">
            <mxPoint x="1272" y="300" as="sourcePoint" />
            <mxPoint x="1450" y="318" as="targetPoint" />
            <mxPoint as="offset" />
          </mxGeometry>
        </mxCell>
        <mxCell id="AdmM8wqcMnkrsijNoPZz-7" value="&lt;div&gt;&lt;span style=&quot;background-color: initial;&quot;&gt;StarterCard&lt;/span&gt;&lt;br&gt;&lt;/div&gt;" style="swimlane;fontStyle=1;align=center;verticalAlign=top;childLayout=stackLayout;horizontal=1;startSize=70;horizontalStack=0;resizeParent=1;resizeParentMax=0;resizeLast=0;collapsible=1;marginBottom=0;whiteSpace=wrap;html=1;" parent="WIyWlLk6GJQsqaUBKTNV-1" vertex="1">
          <mxGeometry x="273" y="394" width="180" height="40" as="geometry" />
        </mxCell>
        <mxCell id="AdmM8wqcMnkrsijNoPZz-15" value="Corner" style="swimlane;fontStyle=1;align=center;verticalAlign=top;childLayout=stackLayout;horizontal=1;startSize=26;horizontalStack=0;resizeParent=1;resizeParentMax=0;resizeLast=0;collapsible=1;marginBottom=0;whiteSpace=wrap;html=1;" parent="WIyWlLk6GJQsqaUBKTNV-1" vertex="1">
          <mxGeometry x="290" y="135" width="170" height="50" as="geometry" />
        </mxCell>
        <mxCell id="AdmM8wqcMnkrsijNoPZz-16" value="&lt;div&gt;- orientation: {nw, no, sw, se}&lt;/div&gt;" style="text;strokeColor=none;fillColor=none;align=left;verticalAlign=top;spacingLeft=4;spacingRight=4;overflow=hidden;rotatable=0;points=[[0,0.5],[1,0.5]];portConstraint=eastwest;whiteSpace=wrap;html=1;" parent="AdmM8wqcMnkrsijNoPZz-15" vertex="1">
          <mxGeometry y="26" width="170" height="24" as="geometry" />
        </mxCell>
        <mxCell id="1DTAicYSYtVY9vasAW3u-0" value="&lt;div&gt;&lt;span style=&quot;white-space: pre;&quot;&gt;Symbol&lt;/span&gt;&lt;/div&gt;" style="swimlane;fontStyle=1;align=center;verticalAlign=top;childLayout=stackLayout;horizontal=1;startSize=34;horizontalStack=0;resizeParent=1;resizeParentMax=0;resizeLast=0;collapsible=1;marginBottom=0;whiteSpace=wrap;html=1;" parent="WIyWlLk6GJQsqaUBKTNV-1" vertex="1">
          <mxGeometry x="600" y="143" width="160" height="34" as="geometry">
            <mxRectangle x="280" y="106" width="90" height="40" as="alternateBounds" />
          </mxGeometry>
        </mxCell>
        <mxCell id="1DTAicYSYtVY9vasAW3u-3" value="Kingdom" style="swimlane;fontStyle=1;align=center;verticalAlign=top;childLayout=stackLayout;horizontal=1;startSize=26;horizontalStack=0;resizeParent=1;resizeParentMax=0;resizeLast=0;collapsible=1;marginBottom=0;whiteSpace=wrap;html=1;" parent="WIyWlLk6GJQsqaUBKTNV-1" vertex="1">
          <mxGeometry x="370" y="289" width="210" height="52" as="geometry">
            <mxRectangle x="460" y="219" width="90" height="30" as="alternateBounds" />
          </mxGeometry>
        </mxCell>
        <mxCell id="1DTAicYSYtVY9vasAW3u-4" value="- name: {fungi, insect, plant, animal}" style="text;strokeColor=none;fillColor=none;align=left;verticalAlign=top;spacingLeft=4;spacingRight=4;overflow=hidden;rotatable=0;points=[[0,0.5],[1,0.5]];portConstraint=eastwest;whiteSpace=wrap;html=1;" parent="1DTAicYSYtVY9vasAW3u-3" vertex="1">
          <mxGeometry y="26" width="210" height="26" as="geometry" />
        </mxCell>
        <mxCell id="1DTAicYSYtVY9vasAW3u-6" value="Condition" style="swimlane;fontStyle=1;align=center;verticalAlign=top;childLayout=stackLayout;horizontal=1;startSize=26;horizontalStack=0;resizeParent=1;resizeParentMax=0;resizeLast=0;collapsible=1;marginBottom=0;whiteSpace=wrap;html=1;" parent="WIyWlLk6GJQsqaUBKTNV-1" vertex="1">
          <mxGeometry x="690" y="280" width="160" height="70" as="geometry" />
        </mxCell>
        <mxCell id="1DTAicYSYtVY9vasAW3u-7" value="&lt;div&gt;&lt;span style=&quot;background-color: initial;&quot;&gt;- position: Kingdom[3][3]&lt;/span&gt;&lt;br&gt;&lt;/div&gt;&lt;div&gt;- cornerCovered: int&lt;br&gt;&lt;/div&gt;" style="text;strokeColor=none;fillColor=none;align=left;verticalAlign=top;spacingLeft=4;spacingRight=4;overflow=hidden;rotatable=0;points=[[0,0.5],[1,0.5]];portConstraint=eastwest;whiteSpace=wrap;html=1;" parent="1DTAicYSYtVY9vasAW3u-6" vertex="1">
          <mxGeometry y="26" width="160" height="44" as="geometry" />
        </mxCell>
        <mxCell id="1DTAicYSYtVY9vasAW3u-11" value="Item" style="swimlane;fontStyle=1;align=center;verticalAlign=top;childLayout=stackLayout;horizontal=1;startSize=26;horizontalStack=0;resizeParent=1;resizeParentMax=0;resizeLast=0;collapsible=1;marginBottom=0;whiteSpace=wrap;html=1;" parent="WIyWlLk6GJQsqaUBKTNV-1" vertex="1">
          <mxGeometry x="870" y="221" width="200" height="50" as="geometry" />
        </mxCell>
        <mxCell id="1DTAicYSYtVY9vasAW3u-12" value="- name: {quill, inkwell, manuscript}" style="text;strokeColor=none;fillColor=none;align=left;verticalAlign=top;spacingLeft=4;spacingRight=4;overflow=hidden;rotatable=0;points=[[0,0.5],[1,0.5]];portConstraint=eastwest;whiteSpace=wrap;html=1;" parent="1DTAicYSYtVY9vasAW3u-11" vertex="1">
          <mxGeometry y="26" width="200" height="24" as="geometry" />
        </mxCell>
        <mxCell id="1DTAicYSYtVY9vasAW3u-16" value="" style="endArrow=classic;html=1;rounded=0;entryX=0;entryY=0.5;entryDx=0;entryDy=0;exitX=1;exitY=0.5;exitDx=0;exitDy=0;" parent="WIyWlLk6GJQsqaUBKTNV-1" source="1DTAicYSYtVY9vasAW3u-7" target="1DTAicYSYtVY9vasAW3u-12" edge="1">
          <mxGeometry relative="1" as="geometry">
            <mxPoint x="730" y="360" as="sourcePoint" />
            <mxPoint x="940" y="250" as="targetPoint" />
            <Array as="points">
              <mxPoint x="850" y="260" />
            </Array>
          </mxGeometry>
        </mxCell>
        <mxCell id="1DTAicYSYtVY9vasAW3u-19" value="0..3&lt;div&gt;item&lt;/div&gt;" style="edgeLabel;resizable=0;html=1;;align=right;verticalAlign=bottom;" parent="1DTAicYSYtVY9vasAW3u-16" connectable="0" vertex="1">
          <mxGeometry x="1" relative="1" as="geometry">
            <mxPoint x="-1" y="-2" as="offset" />
          </mxGeometry>
        </mxCell>
        <mxCell id="1DTAicYSYtVY9vasAW3u-21" value="" style="endArrow=classic;html=1;rounded=0;entryX=1;entryY=0.5;entryDx=0;entryDy=0;exitX=0;exitY=0.5;exitDx=0;exitDy=0;" parent="WIyWlLk6GJQsqaUBKTNV-1" source="1DTAicYSYtVY9vasAW3u-7" target="1DTAicYSYtVY9vasAW3u-4" edge="1">
          <mxGeometry relative="1" as="geometry">
            <mxPoint x="730" y="360" as="sourcePoint" />
            <mxPoint x="890" y="360" as="targetPoint" />
            <Array as="points" />
          </mxGeometry>
        </mxCell>
        <mxCell id="1DTAicYSYtVY9vasAW3u-24" value="0..5&lt;div&gt;kingdom&lt;/div&gt;" style="edgeLabel;resizable=0;html=1;;align=right;verticalAlign=bottom;" parent="1DTAicYSYtVY9vasAW3u-21" connectable="0" vertex="1">
          <mxGeometry x="1" relative="1" as="geometry">
            <mxPoint x="51" as="offset" />
          </mxGeometry>
        </mxCell>
        <mxCell id="1DTAicYSYtVY9vasAW3u-26" value="" style="endArrow=classic;html=1;rounded=0;entryX=0.667;entryY=-0.05;entryDx=0;entryDy=0;exitX=0;exitY=0.5;exitDx=0;exitDy=0;entryPerimeter=0;" parent="WIyWlLk6GJQsqaUBKTNV-1" source="1DTAicYSYtVY9vasAW3u-0" target="1DTAicYSYtVY9vasAW3u-3" edge="1">
          <mxGeometry relative="1" as="geometry">
            <mxPoint x="690" y="359" as="sourcePoint" />
            <mxPoint x="890" y="360" as="targetPoint" />
            <Array as="points">
              <mxPoint x="600" y="230" />
              <mxPoint x="510" y="230" />
            </Array>
          </mxGeometry>
        </mxCell>
        <mxCell id="1DTAicYSYtVY9vasAW3u-29" value="0..1&lt;div&gt;kingdom&lt;/div&gt;" style="edgeLabel;resizable=0;html=1;;align=right;verticalAlign=bottom;" parent="1DTAicYSYtVY9vasAW3u-26" connectable="0" vertex="1">
          <mxGeometry x="1" relative="1" as="geometry">
            <mxPoint x="-5" y="3" as="offset" />
          </mxGeometry>
        </mxCell>
        <mxCell id="1DTAicYSYtVY9vasAW3u-30" value="" style="endArrow=classic;html=1;rounded=0;entryX=0.5;entryY=0;entryDx=0;entryDy=0;exitX=1;exitY=0.5;exitDx=0;exitDy=0;" parent="WIyWlLk6GJQsqaUBKTNV-1" source="1DTAicYSYtVY9vasAW3u-0" target="1DTAicYSYtVY9vasAW3u-11" edge="1">
          <mxGeometry relative="1" as="geometry">
            <mxPoint x="850" y="359" as="sourcePoint" />
            <mxPoint x="890" y="360" as="targetPoint" />
            <Array as="points">
              <mxPoint x="970" y="160" />
            </Array>
          </mxGeometry>
        </mxCell>
        <mxCell id="1DTAicYSYtVY9vasAW3u-33" value="0..1&lt;div&gt;item&lt;/div&gt;" style="edgeLabel;resizable=0;html=1;;align=right;verticalAlign=bottom;" parent="1DTAicYSYtVY9vasAW3u-30" connectable="0" vertex="1">
          <mxGeometry x="1" relative="1" as="geometry">
            <mxPoint x="-5" as="offset" />
          </mxGeometry>
        </mxCell>
        <mxCell id="1DTAicYSYtVY9vasAW3u-36" value="" style="endArrow=classic;html=1;rounded=0;entryX=0;entryY=0.5;entryDx=0;entryDy=0;exitX=1;exitY=0.5;exitDx=0;exitDy=0;" parent="WIyWlLk6GJQsqaUBKTNV-1" source="cyexqi5KJZJQGFpCqObf-5" target="AdmM8wqcMnkrsijNoPZz-16" edge="1">
          <mxGeometry relative="1" as="geometry">
            <mxPoint x="229" y="205" as="sourcePoint" />
            <mxPoint x="279" y="173" as="targetPoint" />
            <Array as="points">
              <mxPoint x="250" y="205" />
              <mxPoint x="250" y="173" />
            </Array>
          </mxGeometry>
        </mxCell>
        <mxCell id="1DTAicYSYtVY9vasAW3u-39" value="2..4&lt;div&gt;face-up&lt;/div&gt;&lt;div&gt;corners&lt;/div&gt;" style="edgeLabel;resizable=0;html=1;;align=right;verticalAlign=bottom;" parent="1DTAicYSYtVY9vasAW3u-36" connectable="0" vertex="1">
          <mxGeometry x="1" relative="1" as="geometry">
            <mxPoint x="-1" y="-3" as="offset" />
          </mxGeometry>
        </mxCell>
        <mxCell id="1DTAicYSYtVY9vasAW3u-47" value="" style="endArrow=classic;html=1;rounded=0;exitX=1.005;exitY=0.167;exitDx=0;exitDy=0;entryX=0.478;entryY=1.037;entryDx=0;entryDy=0;entryPerimeter=0;exitPerimeter=0;" parent="WIyWlLk6GJQsqaUBKTNV-1" source="cyexqi5KJZJQGFpCqObf-7" target="AdmM8wqcMnkrsijNoPZz-16" edge="1">
          <mxGeometry relative="1" as="geometry">
            <mxPoint x="430" y="240" as="sourcePoint" />
            <mxPoint x="590" y="240" as="targetPoint" />
            <Array as="points">
              <mxPoint x="371" y="250" />
            </Array>
          </mxGeometry>
        </mxCell>
        <mxCell id="1DTAicYSYtVY9vasAW3u-50" value="4&lt;div&gt;face-down&lt;/div&gt;&lt;div&gt;corners&lt;/div&gt;" style="edgeLabel;resizable=0;html=1;;align=right;verticalAlign=bottom;" parent="1DTAicYSYtVY9vasAW3u-47" connectable="0" vertex="1">
          <mxGeometry x="1" relative="1" as="geometry">
            <mxPoint x="-6" y="46" as="offset" />
          </mxGeometry>
        </mxCell>
        <mxCell id="1DTAicYSYtVY9vasAW3u-53" value="" style="endArrow=classic;html=1;rounded=0;exitX=1;exitY=0.5;exitDx=0;exitDy=0;" parent="WIyWlLk6GJQsqaUBKTNV-1" source="AdmM8wqcMnkrsijNoPZz-15" edge="1">
          <mxGeometry relative="1" as="geometry">
            <mxPoint x="600" y="280" as="sourcePoint" />
            <mxPoint x="600" y="160" as="targetPoint" />
          </mxGeometry>
        </mxCell>
        <mxCell id="1DTAicYSYtVY9vasAW3u-56" value="1&lt;div&gt;content&lt;/div&gt;" style="edgeLabel;resizable=0;html=1;;align=right;verticalAlign=bottom;" parent="1DTAicYSYtVY9vasAW3u-53" connectable="0" vertex="1">
          <mxGeometry x="1" relative="1" as="geometry">
            <mxPoint x="-1" y="-2" as="offset" />
          </mxGeometry>
        </mxCell>
        <mxCell id="1DTAicYSYtVY9vasAW3u-57" value="" style="endArrow=classic;html=1;rounded=0;exitX=0.5;exitY=0;exitDx=0;exitDy=0;entryX=0.215;entryY=0.946;entryDx=0;entryDy=0;entryPerimeter=0;" parent="WIyWlLk6GJQsqaUBKTNV-1" source="AdmM8wqcMnkrsijNoPZz-7" target="1DTAicYSYtVY9vasAW3u-4" edge="1">
          <mxGeometry relative="1" as="geometry">
            <mxPoint x="600" y="280" as="sourcePoint" />
            <mxPoint x="760" y="280" as="targetPoint" />
            <Array as="points">
              <mxPoint x="363" y="380" />
              <mxPoint x="415" y="380" />
            </Array>
          </mxGeometry>
        </mxCell>
        <mxCell id="1DTAicYSYtVY9vasAW3u-60" value="&lt;div&gt;0..3&lt;/div&gt;middle" style="edgeLabel;resizable=0;html=1;;align=right;verticalAlign=bottom;" parent="1DTAicYSYtVY9vasAW3u-57" connectable="0" vertex="1">
          <mxGeometry x="1" relative="1" as="geometry">
            <mxPoint x="-5" y="33" as="offset" />
          </mxGeometry>
        </mxCell>
        <mxCell id="1DTAicYSYtVY9vasAW3u-69" value="" style="endArrow=classic;html=1;rounded=0;entryX=0;entryY=0.5;entryDx=0;entryDy=0;exitX=0.75;exitY=0;exitDx=0;exitDy=0;" parent="WIyWlLk6GJQsqaUBKTNV-1" source="cyexqi5KJZJQGFpCqObf-10" target="1DTAicYSYtVY9vasAW3u-4" edge="1">
          <mxGeometry relative="1" as="geometry">
            <mxPoint x="285" y="350" as="sourcePoint" />
            <mxPoint x="445" y="350" as="targetPoint" />
            <Array as="points">
              <mxPoint x="215" y="328" />
            </Array>
          </mxGeometry>
        </mxCell>
        <mxCell id="1DTAicYSYtVY9vasAW3u-72" value="&lt;div&gt;1&lt;/div&gt;&lt;div&gt;kingdom&lt;br&gt;&lt;/div&gt;" style="edgeLabel;resizable=0;html=1;;align=right;verticalAlign=bottom;" parent="1DTAicYSYtVY9vasAW3u-69" connectable="0" vertex="1">
          <mxGeometry x="1" relative="1" as="geometry">
            <mxPoint x="-1" y="-3" as="offset" />
          </mxGeometry>
        </mxCell>
        <mxCell id="1DTAicYSYtVY9vasAW3u-73" value="" style="endArrow=classic;html=1;rounded=0;entryX=0.619;entryY=0.977;entryDx=0;entryDy=0;exitX=0.5;exitY=0;exitDx=0;exitDy=0;entryPerimeter=0;" parent="WIyWlLk6GJQsqaUBKTNV-1" source="cyexqi5KJZJQGFpCqObf-14" target="1DTAicYSYtVY9vasAW3u-4" edge="1">
          <mxGeometry relative="1" as="geometry">
            <mxPoint x="225" y="430" as="sourcePoint" />
            <mxPoint x="380" y="338" as="targetPoint" />
            <Array as="points">
              <mxPoint x="575" y="370" />
              <mxPoint x="500" y="370" />
            </Array>
          </mxGeometry>
        </mxCell>
        <mxCell id="1DTAicYSYtVY9vasAW3u-74" value="&lt;div&gt;1&lt;/div&gt;&lt;div&gt;kingdom&lt;br&gt;&lt;/div&gt;" style="edgeLabel;resizable=0;html=1;;align=right;verticalAlign=bottom;" parent="1DTAicYSYtVY9vasAW3u-73" connectable="0" vertex="1">
          <mxGeometry x="1" relative="1" as="geometry">
            <mxPoint x="-4" y="33" as="offset" />
          </mxGeometry>
        </mxCell>
        <mxCell id="1DTAicYSYtVY9vasAW3u-76" value="" style="endArrow=classic;html=1;rounded=0;entryX=0.497;entryY=1;entryDx=0;entryDy=0;entryPerimeter=0;exitX=0.75;exitY=0;exitDx=0;exitDy=0;" parent="WIyWlLk6GJQsqaUBKTNV-1" source="cyexqi5KJZJQGFpCqObf-14" target="1DTAicYSYtVY9vasAW3u-7" edge="1">
          <mxGeometry relative="1" as="geometry">
            <mxPoint x="667" y="530" as="sourcePoint" />
            <mxPoint x="827" y="530" as="targetPoint" />
            <Array as="points">
              <mxPoint x="623" y="380" />
              <mxPoint x="770" y="380" />
            </Array>
          </mxGeometry>
        </mxCell>
        <mxCell id="1DTAicYSYtVY9vasAW3u-79" value="1&lt;div&gt;pointsCondition&lt;/div&gt;" style="edgeLabel;resizable=0;html=1;;align=right;verticalAlign=bottom;" parent="1DTAicYSYtVY9vasAW3u-76" connectable="0" vertex="1">
          <mxGeometry x="1" relative="1" as="geometry">
            <mxPoint x="-6" y="31" as="offset" />
          </mxGeometry>
        </mxCell>
        <mxCell id="1DTAicYSYtVY9vasAW3u-80" value="" style="endArrow=none;html=1;edgeStyle=orthogonalEdgeStyle;rounded=0;entryX=0.5;entryY=1;entryDx=0;entryDy=0;" parent="WIyWlLk6GJQsqaUBKTNV-1" target="cyexqi5KJZJQGFpCqObf-10" edge="1">
          <mxGeometry relative="1" as="geometry">
            <mxPoint x="170" y="480" as="sourcePoint" />
            <mxPoint x="350" y="540" as="targetPoint" />
          </mxGeometry>
        </mxCell>
        <mxCell id="1DTAicYSYtVY9vasAW3u-83" value="" style="endArrow=none;html=1;edgeStyle=orthogonalEdgeStyle;rounded=0;entryX=0.5;entryY=1;entryDx=0;entryDy=0;" parent="WIyWlLk6GJQsqaUBKTNV-1" target="AdmM8wqcMnkrsijNoPZz-7" edge="1">
          <mxGeometry relative="1" as="geometry">
            <mxPoint x="363" y="480" as="sourcePoint" />
            <mxPoint x="360" y="550" as="targetPoint" />
          </mxGeometry>
        </mxCell>
        <mxCell id="1DTAicYSYtVY9vasAW3u-88" value="" style="endArrow=classic;html=1;rounded=0;entryX=1;entryY=0.5;entryDx=0;entryDy=0;exitX=0.75;exitY=0;exitDx=0;exitDy=0;" parent="WIyWlLk6GJQsqaUBKTNV-1" source="cyexqi5KJZJQGFpCqObf-89" target="1DTAicYSYtVY9vasAW3u-7" edge="1">
          <mxGeometry relative="1" as="geometry">
            <mxPoint x="960.08" y="437.58" as="sourcePoint" />
            <mxPoint x="960.0000000000001" y="369.99999999999994" as="targetPoint" />
            <Array as="points">
              <mxPoint x="880" y="328" />
            </Array>
          </mxGeometry>
        </mxCell>
        <mxCell id="1DTAicYSYtVY9vasAW3u-91" value="&lt;div&gt;1&lt;/div&gt;&lt;div&gt;condition&lt;br&gt;&lt;/div&gt;" style="edgeLabel;resizable=0;html=1;;align=right;verticalAlign=bottom;" parent="1DTAicYSYtVY9vasAW3u-88" connectable="0" vertex="1">
          <mxGeometry x="1" relative="1" as="geometry">
            <mxPoint x="27" y="51" as="offset" />
          </mxGeometry>
        </mxCell>
        <mxCell id="1DTAicYSYtVY9vasAW3u-92" value="Extends" style="endArrow=block;endSize=16;endFill=0;html=1;rounded=0;entryX=0.495;entryY=1;entryDx=0;entryDy=0;entryPerimeter=0;" parent="WIyWlLk6GJQsqaUBKTNV-1" target="cyexqi5KJZJQGFpCqObf-7" edge="1">
          <mxGeometry x="0.7313" width="160" relative="1" as="geometry">
            <mxPoint x="480" y="480" as="sourcePoint" />
            <mxPoint x="340" y="530" as="targetPoint" />
            <Array as="points">
              <mxPoint x="70" y="480" />
              <mxPoint x="70" y="360" />
              <mxPoint x="160" y="360" />
            </Array>
            <mxPoint as="offset" />
          </mxGeometry>
        </mxCell>
        <mxCell id="1D2vdNfesXuCDa7hYdHJ-4" value="GameField" style="swimlane;fontStyle=1;align=center;verticalAlign=top;childLayout=stackLayout;horizontal=1;startSize=26;horizontalStack=0;resizeParent=1;resizeParentMax=0;resizeLast=0;collapsible=1;marginBottom=0;whiteSpace=wrap;html=1;" vertex="1" parent="WIyWlLk6GJQsqaUBKTNV-1">
          <mxGeometry x="1540" y="185" width="195" height="60" as="geometry" />
        </mxCell>
        <mxCell id="1D2vdNfesXuCDa7hYdHJ-5" value="- cardVector: List &amp;lt;CardData&amp;gt;" style="text;strokeColor=none;fillColor=none;align=left;verticalAlign=top;spacingLeft=4;spacingRight=4;overflow=hidden;rotatable=0;points=[[0,0.5],[1,0.5]];portConstraint=eastwest;whiteSpace=wrap;html=1;" vertex="1" parent="1D2vdNfesXuCDa7hYdHJ-4">
          <mxGeometry y="26" width="195" height="26" as="geometry" />
        </mxCell>
        <mxCell id="1D2vdNfesXuCDa7hYdHJ-6" value="" style="line;strokeWidth=1;fillColor=none;align=left;verticalAlign=middle;spacingTop=-1;spacingLeft=3;spacingRight=3;rotatable=0;labelPosition=right;points=[];portConstraint=eastwest;strokeColor=inherit;" vertex="1" parent="1D2vdNfesXuCDa7hYdHJ-4">
          <mxGeometry y="52" width="195" height="8" as="geometry" />
        </mxCell>
        <mxCell id="1D2vdNfesXuCDa7hYdHJ-8" value="CardData" style="swimlane;fontStyle=1;align=center;verticalAlign=top;childLayout=stackLayout;horizontal=1;startSize=26;horizontalStack=0;resizeParent=1;resizeParentMax=0;resizeLast=0;collapsible=1;marginBottom=0;whiteSpace=wrap;html=1;" vertex="1" parent="WIyWlLk6GJQsqaUBKTNV-1">
          <mxGeometry x="1170" y="840" width="160" height="78" as="geometry" />
        </mxCell>
        <mxCell id="1D2vdNfesXuCDa7hYdHJ-9" value="- coords: Coordinates&lt;div&gt;- card: PlayableCard&lt;/div&gt;" style="text;strokeColor=none;fillColor=none;align=left;verticalAlign=top;spacingLeft=4;spacingRight=4;overflow=hidden;rotatable=0;points=[[0,0.5],[1,0.5]];portConstraint=eastwest;whiteSpace=wrap;html=1;" vertex="1" parent="1D2vdNfesXuCDa7hYdHJ-8">
          <mxGeometry y="26" width="160" height="44" as="geometry" />
        </mxCell>
        <mxCell id="1D2vdNfesXuCDa7hYdHJ-10" value="" style="line;strokeWidth=1;fillColor=none;align=left;verticalAlign=middle;spacingTop=-1;spacingLeft=3;spacingRight=3;rotatable=0;labelPosition=right;points=[];portConstraint=eastwest;strokeColor=inherit;" vertex="1" parent="1D2vdNfesXuCDa7hYdHJ-8">
          <mxGeometry y="70" width="160" height="8" as="geometry" />
        </mxCell>
        <mxCell id="1D2vdNfesXuCDa7hYdHJ-12" value="Coordinates" style="swimlane;fontStyle=1;align=center;verticalAlign=top;childLayout=stackLayout;horizontal=1;startSize=26;horizontalStack=0;resizeParent=1;resizeParentMax=0;resizeLast=0;collapsible=1;marginBottom=0;whiteSpace=wrap;html=1;" vertex="1" parent="WIyWlLk6GJQsqaUBKTNV-1">
          <mxGeometry x="1350" y="840" width="160" height="78" as="geometry" />
        </mxCell>
        <mxCell id="1D2vdNfesXuCDa7hYdHJ-13" value="- x: int&lt;div&gt;- y: int&lt;/div&gt;" style="text;strokeColor=none;fillColor=none;align=left;verticalAlign=top;spacingLeft=4;spacingRight=4;overflow=hidden;rotatable=0;points=[[0,0.5],[1,0.5]];portConstraint=eastwest;whiteSpace=wrap;html=1;" vertex="1" parent="1D2vdNfesXuCDa7hYdHJ-12">
          <mxGeometry y="26" width="160" height="44" as="geometry" />
        </mxCell>
        <mxCell id="1D2vdNfesXuCDa7hYdHJ-14" value="" style="line;strokeWidth=1;fillColor=none;align=left;verticalAlign=middle;spacingTop=-1;spacingLeft=3;spacingRight=3;rotatable=0;labelPosition=right;points=[];portConstraint=eastwest;strokeColor=inherit;" vertex="1" parent="1D2vdNfesXuCDa7hYdHJ-12">
          <mxGeometry y="70" width="160" height="8" as="geometry" />
        </mxCell>
        <mxCell id="1D2vdNfesXuCDa7hYdHJ-33" value="" style="endArrow=classic;html=1;rounded=0;entryX=0;entryY=0.25;entryDx=0;entryDy=0;" edge="1" parent="WIyWlLk6GJQsqaUBKTNV-1" target="1D2vdNfesXuCDa7hYdHJ-4">
          <mxGeometry width="50" height="50" relative="1" as="geometry">
            <mxPoint x="1390" y="200" as="sourcePoint" />
            <mxPoint x="1538" y="200" as="targetPoint" />
          </mxGeometry>
        </mxCell>
      </root>
    </mxGraphModel>
  </diagram>
</mxfile>
